<?xml version="1.0" encoding="UTF-8" standalone="no"?>
<svg
   xmlns:dc="http://purl.org/dc/elements/1.1/"
   xmlns:cc="http://creativecommons.org/ns#"
   xmlns:rdf="http://www.w3.org/1999/02/22-rdf-syntax-ns#"
   xmlns:svg="http://www.w3.org/2000/svg"
   xmlns="http://www.w3.org/2000/svg"
   xmlns:sodipodi="http://sodipodi.sourceforge.net/DTD/sodipodi-0.dtd"
   xmlns:inkscape="http://www.inkscape.org/namespaces/inkscape"
   height="32"
   viewBox="0 1 31.9375 31.999824"
   width="32"
   class=""
   version="1.1"
   id="svg3815"
   sodipodi:docname="ballBlue.svg"
   inkscape:version="0.92.4 5da689c313, 2019-01-14"
   inkscape:export-filename="/home/daniel/CodeBlocks/Pitthan/Juggler/assets/game/balls/35x35/ballBlue.png"
   inkscape:export-xdpi="96"
   inkscape:export-ydpi="96">
  <metadata
     id="metadata3821">
    <rdf:RDF>
      <cc:Work
         rdf:about="">
        <dc:format>image/svg+xml</dc:format>
        <dc:type
           rdf:resource="http://purl.org/dc/dcmitype/StillImage" />
        <dc:title></dc:title>
      </cc:Work>
    </rdf:RDF>
  </metadata>
  <defs
     id="defs3819" />
  <sodipodi:namedview
     pagecolor="#ffffff"
     bordercolor="#666666"
     borderopacity="1"
     objecttolerance="10"
     gridtolerance="10"
     guidetolerance="10"
     inkscape:pageopacity="0"
     inkscape:pageshadow="2"
     inkscape:window-width="1360"
     inkscape:window-height="711"
     id="namedview3817"
     showgrid="false"
     inkscape:zoom="2.9002426"
     inkscape:cx="32.622053"
     inkscape:cy="44.469809"
     inkscape:window-x="0"
     inkscape:window-y="27"
     inkscape:window-maximized="1"
     inkscape:current-layer="g3813" />
  <g
     id="g3813"
     transform="translate(0,-479.99735)">
    <path
       d="m 27.504545,485.97618 c -6.24837,-6.26026 -16.378899,-6.26026 -22.6272691,0 -6.2483702,6.26025 -6.2483702,16.41037 0,22.67062 6.2483701,6.26026 16.3788991,6.26026 22.6272691,0 6.24837,-6.26025 6.24837,-16.41037 0,-22.67062 z m 0,0"
       data-original="#FF8088"
       class=""
       id="path3789"
       style="fill:#47adff;fill-opacity:1;stroke-width:0.08461146"
       inkscape:connector-curvature="0" />
    <path
       d="m 25.719486,487.76497 c -5.241922,-5.2519 -13.776595,-5.2906 -19.05682,0 -5.2623936,5.27239 -5.2600823,13.82263 0,19.09304 5.266687,5.27671 13.800039,5.26678 19.05682,0 5.267016,-5.27703 5.25711,-13.82627 0,-19.09304 z m -9.501169,9.44413 c -3.12e-4,-6.6e-4 -6.61e-4,-9.2e-4 -6.61e-4,-0.002 -6.63e-4,0 -0.0013,3.1e-4 -0.002,3.1e-4 3.12e-4,-3.1e-4 6.62e-4,-9.1e-4 0.001,-0.002 -6.64e-4,-3.1e-4 -0.0013,-6.6e-4 -0.002,-9.1e-4 6.63e-4,0 0.0013,-3.1e-4 0.002,-6.6e-4 -3.14e-4,-3.1e-4 -6.64e-4,-9.1e-4 -6.64e-4,-0.002 6.64e-4,3.1e-4 0.0013,6.5e-4 0.0016,6.5e-4 3.12e-4,-3e-4 6.62e-4,-9e-4 0.001,-0.002 0,6.7e-4 3.13e-4,9.2e-4 6.62e-4,0.002 6.64e-4,-3e-4 0.0013,-6.5e-4 0.002,-6.5e-4 -3.12e-4,3.1e-4 -6.63e-4,9.2e-4 -10e-4,0.002 6.63e-4,3.1e-4 0.0013,6.6e-4 0.0016,6.6e-4 -3.14e-4,3.2e-4 -0.001,6.7e-4 -0.0016,9.1e-4 0,3.1e-4 3.13e-4,9.2e-4 6.63e-4,0.002 -6.63e-4,-3.1e-4 -0.0013,-6.6e-4 -0.002,-6.6e-4 -3.13e-4,6.6e-4 -6.62e-4,9.1e-4 -6.62e-4,0.002 z m 0,0"
       data-original="#FF646F"
       class=""
       id="path3791"
       style="fill:#47adff;fill-opacity:1;stroke-width:0.08461146"
       inkscape:connector-curvature="0" />
    <path
       d="m 13.978573,495.06898 c 6.62e-4,-3.2e-4 0.0013,-6.7e-4 0.002,-6.7e-4 -6.63e-4,-3.1e-4 -0.0013,-6.6e-4 -0.002,-9.2e-4 3.12e-4,-6.6e-4 6.62e-4,-9.1e-4 10e-4,-0.002 -6.62e-4,3.1e-4 -0.0013,3.1e-4 -0.002,6.4e-4 0,-6.4e-4 -3.12e-4,-9e-4 -6.62e-4,-0.002 -3.13e-4,6.5e-4 -3.13e-4,9.1e-4 -10e-4,0.002 -3.12e-4,-3e-4 -10e-4,-6.4e-4 -0.0016,-9e-4 0,6.7e-4 3.13e-4,9e-4 6.63e-4,0.002 -6.63e-4,3.1e-4 -0.0013,3.1e-4 -0.002,6.6e-4 6.63e-4,3.1e-4 0.0013,6.5e-4 0.002,9.1e-4 -3.12e-4,6.6e-4 -6.63e-4,9.1e-4 -10e-4,0.002 6.61e-4,0 0.0013,-3.1e-4 0.002,-6.7e-4 0,6.7e-4 3.13e-4,9.2e-4 6.62e-4,0.002 3.13e-4,-3.1e-4 6.64e-4,-9.1e-4 0.001,-0.002 3.12e-4,3.1e-4 10e-4,3.1e-4 0.0016,6.6e-4 -3.13e-4,-6.6e-4 -3.13e-4,-9.1e-4 -6.62e-4,-0.002 z m 0,0"
       data-original="#FF4755"
       class=""
       id="path3793"
       inkscape:connector-curvature="0"
       style="fill:#ff4755;stroke-width:0.08461146" />
    <path
       d="m 25.719486,487.76497 c -0.01948,-0.0197 -0.03963,-0.0387 -0.05944,-0.0582 3.42285,5.37661 2.798444,12.60188 -1.895346,17.3046 -4.510529,4.5191 -11.361515,5.28067 -16.6602308,2.26882 5.2917818,4.8496 13.5025288,4.70006 18.6153428,-0.42215 5.266686,-5.27702 5.25678,-13.82627 -3.13e-4,-19.09304 z m 0,0"
       data-original="#FF4755"
       class=""
       id="path3795"
       inkscape:connector-curvature="0"
       style="fill:#47adff;fill-opacity:1;stroke-width:0.08461146" />
    <path
       d="m 17.928093,495.57117 c -0.959562,-0.96139 -2.515133,-0.96139 -3.474363,0 -0.959561,0.96105 -0.959561,2.51958 0,3.48064 0.95923,0.96139 2.514801,0.96139 3.474363,0 0.959229,-0.96106 0.959229,-2.51959 0,-3.48064 z m 0,0"
       data-original="#FDE6BF"
       class=""
       style="fill:#fde6bf;stroke-width:0.0930721;stroke-miterlimit:4;stroke-dasharray:none"
       id="path3797"
       inkscape:connector-curvature="0" />
    <g
       id="g3807"
       style="fill:#fde6bf;fill-opacity:1"
       transform="matrix(0.08453113,0,0,0.08469187,-11.130808,481.28107)">
      <path
         d="m 441.10937,296.57422 c -45.42578,-10.01172 -83.60546,-40.1875 -105.65234,-80.92578 -7.28515,3.3789 -15.67969,3.57812 -23.09766,0.59375 -13.1875,44.55468 -7.37109,93.05468 17.95704,132.28515 38.39843,-1.69922 76.30078,-17.20703 105.62109,-46.52734 1.77734,-1.77734 3.49609,-3.58984 5.17187,-5.42578 z m 0,0"
         data-original="#000000"
         class=""
         style="fill:#fde6bf;fill-opacity:1"
         id="path3799"
         inkscape:connector-curvature="0" />
      <path
         d="m 435.9375,76.558594 c -1.41016,-1.414063 -2.85156,-2.78125 -4.30078,-4.128906 -10.57813,45.152342 -41.12891,82.949222 -82.08594,104.539062 3.22266,6.89062 3.58985,14.78516 1.10547,21.90625 44.26172,13.43359 92.53906,8.0625 131.8125,-16.62109 -1.68359,-38.42579 -17.19141,-76.35547 -46.53125,-105.695316 z m 0,0"
         data-original="#000000"
         class=""
         style="fill:#fde6bf;fill-opacity:1"
         id="path3801"
         inkscape:connector-curvature="0" />
      <path
         d="m 333.97266,162.27344 c 13.85937,-44.3125 8.80468,-92.796878 -15.67579,-132.324221 -39.14062,1.203125 -77.92578,16.730469 -107.80078,46.605469 -1.0664,1.070312 -2.11328,2.148437 -3.14062,3.238281 45.48437,10.46875 83.57031,41.191411 105.23828,82.433591 6.85937,-2.6914 14.53125,-2.67578 21.37891,0.0469 z m 0,0"
         data-original="#000000"
         class=""
         style="fill:#fde6bf;fill-opacity:1"
         id="path3803"
         inkscape:connector-curvature="0" />
      <path
         d="m 296.13672,199.83203 c -2.82422,-7.26172 -2.625,-15.42578 0.60937,-22.55469 -44.62109,-13.64062 -93.35546,-8.15234 -132.85156,16.98047 1.21485,39.1211 16.74219,77.87891 46.60156,107.74219 1.4336,1.43359 2.89454,2.82031 4.3711,4.19141 9.89062,-45.76563 40.24609,-84.23829 81.26953,-106.35938 z m 0,0"
         data-original="#000000"
         class=""
         style="fill:#fde6bf;fill-opacity:1"
         id="path3805"
         inkscape:connector-curvature="0" />
    </g>
    <path
       d="m 27.587755,497.76952 c 0.712572,-0.28683 1.40434,-0.63685 2.06507,-1.05302 -0.142317,-3.25435 -1.452879,-6.46703 -3.933339,-8.95187 -0.01981,-0.0198 -0.03995,-0.039 -0.05977,-0.0585 1.928036,3.02873 2.572257,6.64302 1.928036,10.06345 z m 0,0"
       data-original="#FDE6BF"
       class=""
       style="fill:#fde6bf;stroke-width:0.08461146"
       id="path3809"
       inkscape:connector-curvature="0" />
    <path
       d="m 26.15667,506.39849 c -0.984986,-0.21735 -1.929027,-0.5485 -2.820566,-0.97659 -2.160828,1.99025 -4.800113,3.16965 -7.528886,3.53721 0.276709,0.63353 0.603605,1.2492 0.983665,1.83939 3.246196,-0.14391 6.450123,-1.45729 8.928603,-3.94049 0.15024,-0.15052 0.295529,-0.30402 0.437184,-0.45952 z m 0,0"
       data-original="#FDE6BF"
       class=""
       style="fill:#fde6bf;stroke-width:0.08461146"
       id="path3811"
       inkscape:connector-curvature="0" />
  </g>
</svg>
