<?xml version="1.0" encoding="UTF-8" standalone="no"?>
<svg
   xmlns:dc="http://purl.org/dc/elements/1.1/"
   xmlns:cc="http://creativecommons.org/ns#"
   xmlns:rdf="http://www.w3.org/1999/02/22-rdf-syntax-ns#"
   xmlns:svg="http://www.w3.org/2000/svg"
   xmlns="http://www.w3.org/2000/svg"
   xmlns:sodipodi="http://sodipodi.sourceforge.net/DTD/sodipodi-0.dtd"
   xmlns:inkscape="http://www.inkscape.org/namespaces/inkscape"
   height="32"
   viewBox="0 1 31.9375 31.999824"
   width="32"
   class=""
   version="1.1"
   id="svg3815"
   sodipodi:docname="ballPink.svg"
   inkscape:version="0.92.4 5da689c313, 2019-01-14"
   inkscape:export-filename="/home/daniel/CodeBlocks/Pitthan/Juggler/assets/game/balls/35x35/ballPink.png"
   inkscape:export-xdpi="96"
   inkscape:export-ydpi="96">
  <metadata
     id="metadata3821">
    <rdf:RDF>
      <cc:Work
         rdf:about="">
        <dc:format>image/svg+xml</dc:format>
        <dc:type
           rdf:resource="http://purl.org/dc/dcmitype/StillImage" />
        <dc:title></dc:title>
      </cc:Work>
    </rdf:RDF>
  </metadata>
  <defs
     id="defs3819" />
  <sodipodi:namedview
     pagecolor="#ffffff"
     bordercolor="#666666"
     borderopacity="1"
     objecttolerance="10"
     gridtolerance="10"
     guidetolerance="10"
     inkscape:pageopacity="0"
     inkscape:pageshadow="2"
     inkscape:window-width="1360"
     inkscape:window-height="711"
     id="namedview3817"
     showgrid="false"
     inkscape:zoom="5.8004852"
     inkscape:cx="21.337972"
     inkscape:cy="7.274595"
     inkscape:window-x="0"
     inkscape:window-y="27"
     inkscape:window-maximized="1"
     inkscape:current-layer="g3813" />
  <g
     id="g3813"
     transform="translate(0,-479.99737)">
    <path
       d="m 27.159748,485.68357 c -6.24837,-6.24828 -16.378899,-6.24828 -22.6272691,0 -6.2483701,6.24832 -6.2483701,16.37909 0,22.62742 6.2483701,6.24826 16.3788991,6.24826 22.6272691,0 6.24837,-6.24833 6.24837,-16.3791 0,-22.62742 z m 0,0"
       data-original="#FF8088"
       class=""
       id="path3789"
       style="fill:#ff579e;fill-opacity:1;stroke-width:0.0845307"
       inkscape:connector-curvature="0" />
    <path
       d="m 25.374688,487.46892 c -5.241921,-5.24186 -13.776594,-5.28048 -19.0568188,0 -5.2623936,5.26239 -5.2600823,13.79633 0,19.0567 5.2666878,5.26657 13.8000388,5.25666 19.0568188,0 5.267017,-5.26696 5.257112,-13.79994 0,-19.0567 z m -9.501168,9.42616 c -3.12e-4,-6.5e-4 -6.62e-4,-9.8e-4 -6.62e-4,-0.002 -6.63e-4,0 -0.0013,3.8e-4 -0.002,3.8e-4 3.12e-4,-3.8e-4 6.61e-4,-9.8e-4 9.78e-4,-0.002 -6.61e-4,-3e-4 -0.0013,-6.4e-4 -0.002,-9.6e-4 6.63e-4,0 0.0013,-3.4e-4 0.002,-7.4e-4 -3.12e-4,-3e-4 -6.61e-4,-9.5e-4 -6.61e-4,-0.002 6.61e-4,3e-4 0.0013,6.4e-4 0.0016,6.4e-4 3.14e-4,-3e-4 6.62e-4,-9.6e-4 9.79e-4,-0.002 0,7.3e-4 3.12e-4,9.8e-4 6.62e-4,0.002 6.62e-4,-3e-4 0.0013,-6.4e-4 0.002,-6.4e-4 -3.12e-4,3e-4 -6.64e-4,9.7e-4 -9.79e-4,0.002 6.63e-4,3.6e-4 0.0013,7.4e-4 0.0016,7.4e-4 -3.12e-4,3e-4 -9.78e-4,6.4e-4 -0.0016,9.6e-4 0,3.1e-4 3.13e-4,9.6e-4 6.63e-4,0.002 -6.63e-4,-3.8e-4 -0.0013,-7.4e-4 -0.002,-7.4e-4 -3.14e-4,7.4e-4 -6.63e-4,9.8e-4 -6.63e-4,0.002 z m 0,0"
       data-original="#FF646F"
       class=""
       id="path3791"
       style="fill:#ff579e;fill-opacity:1;stroke-width:0.0845307"
       inkscape:connector-curvature="0" />
    <path
       d="m 13.633776,494.75906 c 6.62e-4,-3.6e-4 0.0013,-7.2e-4 0.002,-7.2e-4 -6.63e-4,-3e-4 -0.0013,-6.3e-4 -0.002,-9.5e-4 3.12e-4,-6.5e-4 6.62e-4,-9.8e-4 9.78e-4,-0.002 -6.62e-4,3.6e-4 -0.0013,3.6e-4 -0.002,7.2e-4 0,-7.2e-4 -3.13e-4,-9.7e-4 -6.63e-4,-0.002 -3.12e-4,6.5e-4 -3.12e-4,9.7e-4 -9.78e-4,0.002 -3.13e-4,-3.2e-4 -9.79e-4,-7.2e-4 -0.0016,-9.7e-4 0,7e-4 3.13e-4,9.7e-4 6.62e-4,0.002 -6.62e-4,3e-4 -0.0013,3e-4 -0.002,6.5e-4 6.63e-4,3e-4 0.0013,6.3e-4 0.002,9.7e-4 -3.12e-4,7.2e-4 -6.62e-4,9.8e-4 -9.78e-4,0.002 6.62e-4,0 0.0013,-3.1e-4 0.002,-6.5e-4 0,6.5e-4 3.12e-4,9.8e-4 6.62e-4,0.002 3.13e-4,-3.4e-4 6.63e-4,-9.8e-4 9.78e-4,-0.002 3.12e-4,3e-4 9.79e-4,3e-4 0.0016,6.5e-4 -3.12e-4,-6.5e-4 -3.12e-4,-9.7e-4 -6.62e-4,-0.002 z m 0,0"
       data-original="#FF4755"
       class=""
       id="path3793"
       inkscape:connector-curvature="0"
       style="fill:#ff4755;stroke-width:0.0845307" />
    <path
       d="m 25.374688,487.46892 c -0.01947,-0.0201 -0.0396,-0.0385 -0.05947,-0.0582 3.422851,5.36636 2.798445,12.57787 -1.895345,17.27164 -4.510531,4.51043 -11.361515,5.27059 -16.6602304,2.26443 5.2917814,4.84039 13.5025294,4.6911 18.6153414,-0.42128 5.266688,-5.26696 5.256782,-13.79994 -3.12e-4,-19.05668 z m 0,0"
       data-original="#FF4755"
       class=""
       id="path3795"
       inkscape:connector-curvature="0"
       style="fill:#ff579e;fill-opacity:1;stroke-width:0.0845307" />
    <path
       d="m 17.583294,495.26026 c -0.959559,-0.95955 -2.515131,-0.95955 -3.474361,0 -0.959561,0.95924 -0.959561,2.51478 0,3.47403 0.95923,0.95955 2.514802,0.95955 3.474361,0 0.959231,-0.95925 0.959231,-2.51479 0,-3.47403 z m 0,0"
       data-original="#FDE6BF"
       class=""
       style="fill:#fde6bf;stroke-width:0.09298327;stroke-miterlimit:4;stroke-dasharray:none"
       id="path3797"
       inkscape:connector-curvature="0" />
    <g
       id="g3807"
       style="fill:#fde6bf;fill-opacity:1"
       transform="matrix(0.08453114,0,0,0.0845303,-11.475604,480.99743)">
      <path
         d="m 441.10937,296.57422 c -45.42578,-10.01172 -83.60546,-40.1875 -105.65234,-80.92578 -7.28515,3.3789 -15.67969,3.57812 -23.09766,0.59375 -13.1875,44.55468 -7.37109,93.05468 17.95704,132.28515 38.39843,-1.69922 76.30078,-17.20703 105.62109,-46.52734 1.77734,-1.77734 3.49609,-3.58984 5.17187,-5.42578 z m 0,0"
         data-original="#000000"
         class=""
         style="fill:#fde6bf;fill-opacity:1"
         id="path3799"
         inkscape:connector-curvature="0" />
      <path
         d="m 435.9375,76.558594 c -1.41016,-1.414063 -2.85156,-2.78125 -4.30078,-4.128906 -10.57813,45.152342 -41.12891,82.949222 -82.08594,104.539062 3.22266,6.89062 3.58985,14.78516 1.10547,21.90625 44.26172,13.43359 92.53906,8.0625 131.8125,-16.62109 -1.68359,-38.42579 -17.19141,-76.35547 -46.53125,-105.695316 z m 0,0"
         data-original="#000000"
         class=""
         style="fill:#fde6bf;fill-opacity:1"
         id="path3801"
         inkscape:connector-curvature="0" />
      <path
         d="m 333.97266,162.27344 c 13.85937,-44.3125 8.80468,-92.796878 -15.67579,-132.324221 -39.14062,1.203125 -77.92578,16.730469 -107.80078,46.605469 -1.0664,1.070312 -2.11328,2.148437 -3.14062,3.238281 45.48437,10.46875 83.57031,41.191411 105.23828,82.433591 6.85937,-2.6914 14.53125,-2.67578 21.37891,0.0469 z m 0,0"
         data-original="#000000"
         class=""
         style="fill:#fde6bf;fill-opacity:1"
         id="path3803"
         inkscape:connector-curvature="0" />
      <path
         d="m 296.13672,199.83203 c -2.82422,-7.26172 -2.625,-15.42578 0.60937,-22.55469 -44.62109,-13.64062 -93.35546,-8.15234 -132.85156,16.98047 1.21485,39.1211 16.74219,77.87891 46.60156,107.74219 1.4336,1.43359 2.89454,2.82031 4.3711,4.19141 9.89062,-45.76563 40.24609,-84.23829 81.26953,-106.35938 z m 0,0"
         data-original="#000000"
         class=""
         style="fill:#fde6bf;fill-opacity:1"
         id="path3805"
         inkscape:connector-curvature="0" />
    </g>
    <path
       d="m 27.242959,497.45444 c 0.71257,-0.28632 1.404339,-0.63566 2.06507,-1.05106 -0.142316,-3.24814 -1.452881,-6.45467 -3.933341,-8.93478 -0.0198,-0.02 -0.03993,-0.0388 -0.05979,-0.0585 1.928037,3.02296 2.572256,6.63034 1.928037,10.04425 z m 0,0"
       data-original="#FDE6BF"
       class=""
       style="fill:#fde6bf;stroke-width:0.0845307"
       id="path3809"
       inkscape:connector-curvature="0" />
    <path
       d="m 25.811873,506.06692 c -0.984986,-0.21693 -1.929027,-0.54745 -2.820565,-0.97469 -2.160829,1.9864 -4.800117,3.16356 -7.528887,3.53043 0.276707,0.63236 0.603606,1.24686 0.983665,1.83592 3.246193,-0.14364 6.450123,-1.45455 8.928602,-3.93296 0.150241,-0.15024 0.295529,-0.30346 0.437185,-0.4587 z m 0,0"
       data-original="#FDE6BF"
       class=""
       style="fill:#fde6bf;stroke-width:0.0845307"
       id="path3811"
       inkscape:connector-curvature="0" />
  </g>
</svg>
