<?xml version="1.0" encoding="UTF-8" standalone="no"?>
<svg
   xmlns:dc="http://purl.org/dc/elements/1.1/"
   xmlns:cc="http://creativecommons.org/ns#"
   xmlns:rdf="http://www.w3.org/1999/02/22-rdf-syntax-ns#"
   xmlns:svg="http://www.w3.org/2000/svg"
   xmlns="http://www.w3.org/2000/svg"
   xmlns:sodipodi="http://sodipodi.sourceforge.net/DTD/sodipodi-0.dtd"
   xmlns:inkscape="http://www.inkscape.org/namespaces/inkscape"
   height="512px"
   viewBox="0 1 511 511.99719"
   width="512px"
   class=""
   version="1.1"
   id="svg3815"
   sodipodi:docname="ballBlue.svg"
   inkscape:version="0.92.4 5da689c313, 2019-01-14">
  <metadata
     id="metadata3821">
    <rdf:RDF>
      <cc:Work
         rdf:about="">
        <dc:format>image/svg+xml</dc:format>
        <dc:type
           rdf:resource="http://purl.org/dc/dcmitype/StillImage" />
        <dc:title></dc:title>
      </cc:Work>
    </rdf:RDF>
  </metadata>
  <defs
     id="defs3819" />
  <sodipodi:namedview
     pagecolor="#ffffff"
     bordercolor="#666666"
     borderopacity="1"
     objecttolerance="10"
     gridtolerance="10"
     guidetolerance="10"
     inkscape:pageopacity="0"
     inkscape:pageshadow="2"
     inkscape:window-width="1360"
     inkscape:window-height="711"
     id="namedview3817"
     showgrid="false"
     inkscape:zoom="1.0253906"
     inkscape:cx="256"
     inkscape:cy="254.53714"
     inkscape:window-x="0"
     inkscape:window-y="27"
     inkscape:window-maximized="1"
     inkscape:current-layer="g3813" />
  <g
     id="g3813">
    <path
       d="m 436.66013,75.001944 c -100.0064,-100.196557 -262.14752,-100.196557 -362.153924,0 -100.006402,100.196556 -100.006402,262.651266 0,362.847826 100.006404,100.19656 262.147524,100.19656 362.153924,0 100.0064,-100.19656 100.0064,-262.65127 0,-362.847826 z m 0,0"
       data-original="#FF8088"
       class=""
       id="path3789"
       style="fill:#47adff;fill-opacity:1;stroke-width:1.35422325"
       inkscape:connector-curvature="0" />
    <path
       d="m 408.08989,103.6318 c -83.89798,-84.057513 -220.49712,-84.677023 -305.00816,0 -84.225652,84.3858 -84.188659,221.23408 0,305.58811 84.29436,84.45464 220.87236,84.29579 305.00816,0 84.29965,-84.45993 84.1411,-221.29232 0,-305.58811 z M 256.02182,254.78706 c -0.005,-0.0106 -0.0106,-0.0212 -0.0106,-0.0265 -0.0106,0 -0.0211,0.005 -0.0317,0.005 0.005,-0.005 0.0106,-0.0159 0.0159,-0.0265 -0.0106,-0.005 -0.0211,-0.0106 -0.0317,-0.0159 0.0106,0 0.0211,-0.005 0.0317,-0.0106 -0.005,-0.005 -0.0106,-0.0159 -0.0106,-0.0265 0.0106,0.005 0.0211,0.0106 0.0264,0.0106 0.005,-0.005 0.0106,-0.0159 0.0159,-0.0265 0,0.0106 0.005,0.0212 0.0106,0.0318 0.0106,-0.005 0.0211,-0.0106 0.0317,-0.0106 -0.005,0.005 -0.0106,0.0159 -0.0159,0.0265 0.0106,0.005 0.0211,0.0106 0.0264,0.0106 -0.005,0.005 -0.0159,0.0106 -0.0264,0.0159 0,0.005 0.005,0.0159 0.0106,0.0265 -0.0106,-0.005 -0.0211,-0.0106 -0.0317,-0.0106 -0.005,0.0106 -0.0106,0.0159 -0.0106,0.0265 z m 0,0"
       data-original="#FF646F"
       class=""
       id="path3791"
       style="fill:#47adff;fill-opacity:1;stroke-width:1.35422325"
       inkscape:connector-curvature="0" />
    <path
       d="m 220.17426,220.53396 c 0.0106,-0.005 0.0211,-0.0106 0.0317,-0.0106 -0.0106,-0.005 -0.0211,-0.0106 -0.0317,-0.0159 0.005,-0.0106 0.0106,-0.0212 0.0159,-0.0318 -0.0106,0.005 -0.0211,0.005 -0.0317,0.0106 0,-0.0106 -0.005,-0.0212 -0.0106,-0.0318 -0.005,0.0106 -0.005,0.0212 -0.0159,0.0318 -0.005,-0.005 -0.0159,-0.0106 -0.0264,-0.0159 0,0.0106 0.005,0.0212 0.0106,0.0318 -0.0106,0.005 -0.0211,0.005 -0.0317,0.0106 0.0106,0.005 0.0211,0.0106 0.0317,0.0159 -0.005,0.0106 -0.0106,0.0159 -0.0158,0.0265 0.0106,0 0.0211,-0.005 0.0317,-0.0106 0,0.0106 0.005,0.0212 0.0106,0.0318 0.005,-0.005 0.0106,-0.0159 0.0159,-0.0265 0.005,0.005 0.0159,0.005 0.0264,0.0106 -0.005,-0.0106 -0.005,-0.0159 -0.0106,-0.0265 z m 0,0"
       data-original="#FF4755"
       class=""
       id="path3793"
       inkscape:connector-curvature="0"
       style="fill:#ff4755;stroke-width:1.35422325" />
    <path
       d="m 408.08989,103.6318 c -0.31181,-0.3177 -0.63418,-0.61951 -0.95128,-0.93191 54.7834,86.05371 44.78964,201.69567 -30.3354,276.96355 -72.1919,72.32917 -181.84327,84.51817 -266.65027,36.31284 84.69602,77.61885 216.11065,75.22552 297.94224,-6.75637 84.29436,-84.45993 84.13581,-221.29232 -0.005,-305.58811 z m 0,0"
       data-original="#FF4755"
       class=""
       id="path3795"
       inkscape:connector-curvature="0"
       style="fill:#47adff;stroke-width:1.35422325;fill-opacity:1" />
    <path
       d="m 283.3871,228.57171 c -15.35796,-15.38716 -40.25518,-15.38716 -55.60786,0 -15.35795,15.38186 -15.35795,40.32643 0,55.70829 15.35268,15.38716 40.2499,15.38716 55.60786,0 15.35267,-15.38186 15.35267,-40.32643 0,-55.70829 z m 0,0"
       data-original="#FDE6BF"
       class=""
       style="fill:#fde6bf;stroke-width:1.48963737;stroke-miterlimit:4;stroke-dasharray:none"
       id="path3797"
       inkscape:connector-curvature="0" />
    <g
       id="g3807"
       style="fill:#fde6bf;fill-opacity:1"
       transform="matrix(1.3529376,0,0,1.3555102,-181.70636,-0.1441496)">
      <path
         d="m 441.10937,296.57422 c -45.42578,-10.01172 -83.60546,-40.1875 -105.65234,-80.92578 -7.28515,3.3789 -15.67969,3.57812 -23.09766,0.59375 -13.1875,44.55468 -7.37109,93.05468 17.95704,132.28515 38.39843,-1.69922 76.30078,-17.20703 105.62109,-46.52734 1.77734,-1.77734 3.49609,-3.58984 5.17187,-5.42578 z m 0,0"
         data-original="#000000"
         class=""
         style="fill:#fde6bf;fill-opacity:1"
         id="path3799"
         inkscape:connector-curvature="0" />
      <path
         d="m 435.9375,76.558594 c -1.41016,-1.414063 -2.85156,-2.78125 -4.30078,-4.128906 -10.57813,45.152342 -41.12891,82.949222 -82.08594,104.539062 3.22266,6.89062 3.58985,14.78516 1.10547,21.90625 44.26172,13.43359 92.53906,8.0625 131.8125,-16.62109 -1.68359,-38.42579 -17.19141,-76.35547 -46.53125,-105.695316 z m 0,0"
         data-original="#000000"
         class=""
         style="fill:#fde6bf;fill-opacity:1"
         id="path3801"
         inkscape:connector-curvature="0" />
      <path
         d="m 333.97266,162.27344 c 13.85937,-44.3125 8.80468,-92.796878 -15.67579,-132.324221 -39.14062,1.203125 -77.92578,16.730469 -107.80078,46.605469 -1.0664,1.070312 -2.11328,2.148437 -3.14062,3.238281 45.48437,10.46875 83.57031,41.191411 105.23828,82.433591 6.85937,-2.6914 14.53125,-2.67578 21.37891,0.0469 z m 0,0"
         data-original="#000000"
         class=""
         style="fill:#fde6bf;fill-opacity:1"
         id="path3803"
         inkscape:connector-curvature="0" />
      <path
         d="m 296.13672,199.83203 c -2.82422,-7.26172 -2.625,-15.42578 0.60937,-22.55469 -44.62109,-13.64062 -93.35546,-8.15234 -132.85156,16.98047 1.21485,39.1211 16.74219,77.87891 46.60156,107.74219 1.4336,1.43359 2.89454,2.82031 4.3711,4.19141 9.89062,-45.76563 40.24609,-84.23829 81.26953,-106.35938 z m 0,0"
         data-original="#000000"
         class=""
         style="fill:#fde6bf;fill-opacity:1"
         id="path3805"
         inkscape:connector-curvature="0" />
    </g>
    <path
       d="m 437.99193,263.75673 c 11.40484,-4.59073 22.47673,-10.1928 33.05184,-16.85386 -2.27779,-52.08654 -23.25361,-103.50591 -62.95388,-143.27637 -0.31709,-0.31769 -0.63947,-0.6248 -0.95656,-0.9372 30.8586,48.47537 41.16946,106.32282 30.8586,161.06743 z m 0,0"
       data-original="#FDE6BF"
       class=""
       style="fill:#fde6bf;stroke-width:1.35422325"
       id="path3809"
       inkscape:connector-curvature="0" />
    <path
       d="m 415.08712,401.86521 c -15.7649,-3.47879 -30.87446,-8.77904 -45.14372,-15.63072 -34.58447,31.85448 -76.82678,50.73102 -120.5013,56.61373 4.42876,10.13985 9.66082,19.99377 15.74376,29.43998 51.95597,-2.30331 103.23548,-23.32431 142.90403,-63.06829 2.40464,-2.4092 4.73,-4.86607 6.99723,-7.3547 z m 0,0"
       data-original="#FDE6BF"
       class=""
       style="fill:#fde6bf;stroke-width:1.35422325"
       id="path3811"
       inkscape:connector-curvature="0" />
  </g>
</svg>
