<?xml version="1.0" encoding="UTF-8" standalone="no"?>
<svg
   xmlns:dc="http://purl.org/dc/elements/1.1/"
   xmlns:cc="http://creativecommons.org/ns#"
   xmlns:rdf="http://www.w3.org/1999/02/22-rdf-syntax-ns#"
   xmlns:svg="http://www.w3.org/2000/svg"
   xmlns="http://www.w3.org/2000/svg"
   xmlns:sodipodi="http://sodipodi.sourceforge.net/DTD/sodipodi-0.dtd"
   xmlns:inkscape="http://www.inkscape.org/namespaces/inkscape"
   height="32"
   viewBox="0 1 31.9375 31.999824"
   width="32"
   class=""
   version="1.1"
   id="svg3815"
   sodipodi:docname="ballRed.svg"
   inkscape:version="0.92.4 5da689c313, 2019-01-14"
   inkscape:export-filename="/home/daniel/CodeBlocks/Pitthan/Juggler/assets/game/balls/35x35/ballRed.png"
   inkscape:export-xdpi="96"
   inkscape:export-ydpi="96">
  <metadata
     id="metadata3821">
    <rdf:RDF>
      <cc:Work
         rdf:about="">
        <dc:format>image/svg+xml</dc:format>
        <dc:type
           rdf:resource="http://purl.org/dc/dcmitype/StillImage" />
        <dc:title></dc:title>
      </cc:Work>
    </rdf:RDF>
  </metadata>
  <defs
     id="defs3819" />
  <sodipodi:namedview
     pagecolor="#ffffff"
     bordercolor="#666666"
     borderopacity="1"
     objecttolerance="10"
     gridtolerance="10"
     guidetolerance="10"
     inkscape:pageopacity="0"
     inkscape:pageshadow="2"
     inkscape:window-width="1360"
     inkscape:window-height="711"
     id="namedview3817"
     showgrid="false"
     inkscape:zoom="8.2031248"
     inkscape:cx="16.389703"
     inkscape:cy="16.462472"
     inkscape:window-x="0"
     inkscape:window-y="27"
     inkscape:window-maximized="1"
     inkscape:current-layer="g3813" />
  <g
     id="g3813"
     transform="translate(0,-479.99737)">
    <path
       d="m 27.302567,485.80549 c -6.248369,-6.2483 -16.378899,-6.2483 -22.6272684,0 -6.2483702,6.24831 -6.2483702,16.37906 0,22.62737 6.2483694,6.2483 16.3788994,6.2483 22.6272684,0 6.24837,-6.24831 6.24837,-16.37906 0,-22.62737 z m 0,0"
       data-original="#FF8088"
       class=""
       id="path3789"
       style="fill:#ff4755;fill-opacity:1;stroke-width:0.08453071"
       inkscape:connector-curvature="0" />
    <path
       d="m 25.517507,487.59086 c -5.241921,-5.24187 -13.776594,-5.2805 -19.0568183,0 -5.2623936,5.26234 -5.2600823,13.79627 0,19.05663 5.2666863,5.26663 13.8000383,5.25672 19.0568183,0 5.267018,-5.26696 5.257111,-13.7999 0,-19.05663 z m -9.501167,9.42612 c -3.13e-4,-6.6e-4 -6.63e-4,-10e-4 -6.63e-4,-0.002 -6.62e-4,0 -0.0013,3.1e-4 -0.002,3.1e-4 3.12e-4,-3.1e-4 6.62e-4,-9.8e-4 9.93e-4,-0.002 -6.62e-4,-3.1e-4 -0.0013,-6.6e-4 -0.002,-9.9e-4 6.62e-4,0 0.0013,-3.2e-4 0.002,-6.7e-4 -3.12e-4,-3.1e-4 -6.62e-4,-9.9e-4 -6.62e-4,-0.002 6.62e-4,3.1e-4 0.0013,6.6e-4 0.0016,6.6e-4 3.13e-4,-3.1e-4 6.62e-4,-9.8e-4 9.94e-4,-0.002 0,6.7e-4 3.12e-4,0.001 6.62e-4,0.002 6.63e-4,-3.1e-4 0.0013,-6.6e-4 0.002,-6.6e-4 -3.11e-4,3.1e-4 -6.62e-4,9.9e-4 -9.93e-4,0.002 6.63e-4,3.2e-4 0.0013,6.7e-4 0.0016,6.7e-4 -3.12e-4,3.1e-4 -9.93e-4,6.6e-4 -0.0016,9.9e-4 0,3.1e-4 3.12e-4,9.9e-4 6.63e-4,0.002 -6.63e-4,-3.2e-4 -0.0013,-6.6e-4 -0.002,-6.6e-4 -3.13e-4,6.6e-4 -6.63e-4,9.9e-4 -6.63e-4,0.002 z m 0,0"
       data-original="#FF646F"
       class=""
       id="path3791"
       style="fill:#ff4755;fill-opacity:1;stroke-width:0.08453071"
       inkscape:connector-curvature="0" />
    <path
       d="m 13.776595,494.88093 c 6.62e-4,-3.1e-4 0.0013,-6.5e-4 0.002,-6.5e-4 -6.62e-4,-3.1e-4 -0.0013,-6.6e-4 -0.002,-9.9e-4 3.12e-4,-6.6e-4 6.62e-4,-0.001 9.93e-4,-0.002 -6.62e-4,3.1e-4 -0.0013,3.1e-4 -0.002,6.6e-4 0,-6.6e-4 -3.12e-4,-10e-4 -6.62e-4,-0.002 -3.12e-4,6.6e-4 -3.12e-4,0.001 -9.93e-4,0.002 -3.12e-4,-3.1e-4 -9.94e-4,-6.6e-4 -0.0016,-9.9e-4 0,6.6e-4 3.13e-4,10e-4 6.62e-4,0.002 -6.62e-4,3.1e-4 -0.0013,3.1e-4 -0.002,6.6e-4 6.62e-4,3.1e-4 0.0013,6.6e-4 0.002,9.8e-4 -3.12e-4,6.7e-4 -6.62e-4,10e-4 -9.87e-4,0.002 6.63e-4,0 0.0013,-3.1e-4 0.002,-6.6e-4 0,6.6e-4 3.12e-4,0.001 6.63e-4,0.002 3.12e-4,-3.1e-4 6.61e-4,-9.9e-4 9.93e-4,-0.002 3.12e-4,3.1e-4 9.93e-4,3.1e-4 0.0016,6.6e-4 -3.12e-4,-6.6e-4 -3.12e-4,-9.9e-4 -6.62e-4,-0.002 z m 0,0"
       data-original="#FF4755"
       class=""
       id="path3793"
       inkscape:connector-curvature="0"
       style="fill:#ff4755;stroke-width:0.08453071" />
    <path
       d="m 25.517507,487.59086 c -0.01948,-0.0199 -0.03963,-0.0386 -0.05944,-0.0581 3.422852,5.36635 2.798444,12.57784 -1.895346,17.27158 -4.510529,4.51048 -11.361514,5.2706 -16.6602291,2.26449 5.2917811,4.84035 13.5025281,4.6911 18.6153411,-0.42133 5.266688,-5.26696 5.256781,-13.7999 -3.12e-4,-19.05663 z m 0,0"
       data-original="#FF4755"
       class=""
       id="path3795"
       inkscape:connector-curvature="0"
       style="fill:#ff4755;stroke-width:0.08453071" />
    <path
       d="m 17.726114,495.38218 c -0.959561,-0.95955 -2.515132,-0.95955 -3.474363,0 -0.95956,0.95922 -0.95956,2.51477 0,3.474 0.959231,0.95954 2.514802,0.95954 3.474363,0 0.95923,-0.95923 0.95923,-2.51478 0,-3.474 z m 0,0"
       data-original="#FDE6BF"
       class=""
       style="fill:#fde6bf;stroke-width:0.09298326;stroke-miterlimit:4;stroke-dasharray:none"
       id="path3797"
       inkscape:connector-curvature="0" />
    <g
       id="g3807"
       style="fill:#fde6bf;fill-opacity:1"
       transform="matrix(0.08453114,0,0,0.08453028,-11.332786,481.11934)">
      <path
         d="m 441.10937,296.57422 c -45.42578,-10.01172 -83.60546,-40.1875 -105.65234,-80.92578 -7.28515,3.3789 -15.67969,3.57812 -23.09766,0.59375 -13.1875,44.55468 -7.37109,93.05468 17.95704,132.28515 38.39843,-1.69922 76.30078,-17.20703 105.62109,-46.52734 1.77734,-1.77734 3.49609,-3.58984 5.17187,-5.42578 z m 0,0"
         data-original="#000000"
         class=""
         style="fill:#fde6bf;fill-opacity:1"
         id="path3799"
         inkscape:connector-curvature="0" />
      <path
         d="m 435.9375,76.558594 c -1.41016,-1.414063 -2.85156,-2.78125 -4.30078,-4.128906 -10.57813,45.152342 -41.12891,82.949222 -82.08594,104.539062 3.22266,6.89062 3.58985,14.78516 1.10547,21.90625 44.26172,13.43359 92.53906,8.0625 131.8125,-16.62109 -1.68359,-38.42579 -17.19141,-76.35547 -46.53125,-105.695316 z m 0,0"
         data-original="#000000"
         class=""
         style="fill:#fde6bf;fill-opacity:1"
         id="path3801"
         inkscape:connector-curvature="0" />
      <path
         d="m 333.97266,162.27344 c 13.85937,-44.3125 8.80468,-92.796878 -15.67579,-132.324221 -39.14062,1.203125 -77.92578,16.730469 -107.80078,46.605469 -1.0664,1.070312 -2.11328,2.148437 -3.14062,3.238281 45.48437,10.46875 83.57031,41.191411 105.23828,82.433591 6.85937,-2.6914 14.53125,-2.67578 21.37891,0.0469 z m 0,0"
         data-original="#000000"
         class=""
         style="fill:#fde6bf;fill-opacity:1"
         id="path3803"
         inkscape:connector-curvature="0" />
      <path
         d="m 296.13672,199.83203 c -2.82422,-7.26172 -2.625,-15.42578 0.60937,-22.55469 -44.62109,-13.64062 -93.35546,-8.15234 -132.85156,16.98047 1.21485,39.1211 16.74219,77.87891 46.60156,107.74219 1.4336,1.43359 2.89454,2.82031 4.3711,4.19141 9.89062,-45.76563 40.24609,-84.23829 81.26953,-106.35938 z m 0,0"
         data-original="#000000"
         class=""
         style="fill:#fde6bf;fill-opacity:1"
         id="path3805"
         inkscape:connector-curvature="0" />
    </g>
    <path
       d="m 27.385777,497.57633 c 0.712572,-0.28628 1.40434,-0.63562 2.06507,-1.05101 -0.142315,-3.24815 -1.452879,-6.45468 -3.93334,-8.93479 -0.01981,-0.0198 -0.03995,-0.0389 -0.05977,-0.0584 1.928036,3.02294 2.572256,6.63034 1.928036,10.04424 z m 0,0"
       data-original="#FDE6BF"
       class=""
       style="fill:#fde6bf;stroke-width:0.08453071"
       id="path3809"
       inkscape:connector-curvature="0" />
    <path
       d="m 25.954693,506.18885 c -0.984987,-0.21695 -1.929028,-0.54747 -2.820567,-0.97475 -2.160828,1.98646 -4.800114,3.16361 -7.528886,3.53046 0.276708,0.63233 0.603606,1.24683 0.983666,1.83589 3.246194,-0.14363 6.450123,-1.45451 8.928601,-3.93296 0.150241,-0.15024 0.295529,-0.30345 0.437186,-0.45864 z m 0,0"
       data-original="#FDE6BF"
       class=""
       style="fill:#fde6bf;stroke-width:0.08453071"
       id="path3811"
       inkscape:connector-curvature="0" />
  </g>
</svg>
