<?xml version="1.0" encoding="UTF-8" standalone="no"?>
<!-- Generator: Adobe Illustrator 19.0.0, SVG Export Plug-In . SVG Version: 6.00 Build 0)  -->

<svg
   xmlns:dc="http://purl.org/dc/elements/1.1/"
   xmlns:cc="http://creativecommons.org/ns#"
   xmlns:rdf="http://www.w3.org/1999/02/22-rdf-syntax-ns#"
   xmlns:svg="http://www.w3.org/2000/svg"
   xmlns="http://www.w3.org/2000/svg"
   xmlns:sodipodi="http://sodipodi.sourceforge.net/DTD/sodipodi-0.dtd"
   xmlns:inkscape="http://www.inkscape.org/namespaces/inkscape"
   version="1.1"
   id="Capa_1"
   x="0px"
   y="0px"
   viewBox="0 0 512 512"
   style="enable-background:new 0 0 512 512;"
   xml:space="preserve"
   sodipodi:docname="score.svg"
   inkscape:export-filename="/home/daniel/CodeBlocks/Pitthan/Juggler/assets/game/score.png"
   inkscape:export-xdpi="12.1875"
   inkscape:export-ydpi="12.1875"
   inkscape:version="0.92.4 5da689c313, 2019-01-14"><metadata
   id="metadata196"><rdf:RDF><cc:Work
       rdf:about=""><dc:format>image/svg+xml</dc:format><dc:type
         rdf:resource="http://purl.org/dc/dcmitype/StillImage" /><dc:title></dc:title></cc:Work></rdf:RDF></metadata><defs
   id="defs194"><clipPath
     clipPathUnits="userSpaceOnUse"
     id="clipPath194"><rect
       style="fill:#ff579e;fill-opacity:1;stroke-width:1.10571432;stroke-miterlimit:4;stroke-dasharray:none"
       id="rect196"
       width="874.80084"
       height="520.58704"
       x="-168.51991"
       y="-2.5979261e-06" /></clipPath><clipPath
     clipPathUnits="userSpaceOnUse"
     id="clipPath198"><rect
       style="fill:#ff579e;fill-opacity:1;stroke-width:1.10571432;stroke-miterlimit:4;stroke-dasharray:none"
       id="rect200"
       width="874.80084"
       height="520.58704"
       x="-168.51991"
       y="-2.5979261e-06" /></clipPath><clipPath
     clipPathUnits="userSpaceOnUse"
     id="clipPath202"><rect
       style="fill:#ff579e;fill-opacity:1;stroke-width:1.10571432;stroke-miterlimit:4;stroke-dasharray:none"
       id="rect204"
       width="874.80084"
       height="520.58704"
       x="-168.51991"
       y="-2.5979261e-06" /></clipPath><clipPath
     clipPathUnits="userSpaceOnUse"
     id="clipPath206"><rect
       style="fill:#ff579e;fill-opacity:1;stroke-width:1.10571432;stroke-miterlimit:4;stroke-dasharray:none"
       id="rect208"
       width="874.80084"
       height="520.58704"
       x="-168.51991"
       y="-2.5979261e-06" /></clipPath><clipPath
     clipPathUnits="userSpaceOnUse"
     id="clipPath210"><rect
       style="fill:#ff579e;fill-opacity:1;stroke-width:1.10571432;stroke-miterlimit:4;stroke-dasharray:none"
       id="rect212"
       width="874.80084"
       height="520.58704"
       x="-168.51991"
       y="-2.5979261e-06" /></clipPath><clipPath
     clipPathUnits="userSpaceOnUse"
     id="clipPath214"><rect
       style="fill:#ff579e;fill-opacity:1;stroke-width:1.10571432;stroke-miterlimit:4;stroke-dasharray:none"
       id="rect216"
       width="874.80084"
       height="520.58704"
       x="-168.51991"
       y="-2.5979261e-06" /></clipPath><clipPath
     clipPathUnits="userSpaceOnUse"
     id="clipPath218"><rect
       style="fill:#ff579e;fill-opacity:1;stroke-width:1.10571432;stroke-miterlimit:4;stroke-dasharray:none"
       id="rect220"
       width="874.80084"
       height="520.58704"
       x="-168.51991"
       y="-2.5979261e-06" /></clipPath><clipPath
     clipPathUnits="userSpaceOnUse"
     id="clipPath222"><rect
       style="fill:#ff579e;fill-opacity:1;stroke-width:1.10571432;stroke-miterlimit:4;stroke-dasharray:none"
       id="rect224"
       width="874.80084"
       height="520.58704"
       x="-168.51991"
       y="-2.5979261e-06" /></clipPath><clipPath
     clipPathUnits="userSpaceOnUse"
     id="clipPath226"><rect
       style="fill:#ff579e;fill-opacity:1;stroke-width:1.10571432;stroke-miterlimit:4;stroke-dasharray:none"
       id="rect228"
       width="874.80084"
       height="520.58704"
       x="-168.51991"
       y="-2.5979261e-06" /></clipPath><clipPath
     clipPathUnits="userSpaceOnUse"
     id="clipPath230"><rect
       style="fill:#ff579e;fill-opacity:1;stroke-width:1.10571432;stroke-miterlimit:4;stroke-dasharray:none"
       id="rect232"
       width="874.80084"
       height="520.58704"
       x="-168.51991"
       y="-2.5979261e-06" /></clipPath><clipPath
     clipPathUnits="userSpaceOnUse"
     id="clipPath234"><rect
       style="fill:#ff579e;fill-opacity:1;stroke-width:1.10571432;stroke-miterlimit:4;stroke-dasharray:none"
       id="rect236"
       width="874.80084"
       height="520.58704"
       x="-168.51991"
       y="-2.5979261e-06" /></clipPath><clipPath
     clipPathUnits="userSpaceOnUse"
     id="clipPath238"><rect
       style="fill:#ff579e;fill-opacity:1;stroke-width:1.10571432;stroke-miterlimit:4;stroke-dasharray:none"
       id="rect240"
       width="874.80084"
       height="520.58704"
       x="-168.51991"
       y="-2.5979261e-06" /></clipPath><clipPath
     clipPathUnits="userSpaceOnUse"
     id="clipPath242"><rect
       style="fill:#ff579e;fill-opacity:1;stroke-width:1.10571432;stroke-miterlimit:4;stroke-dasharray:none"
       id="rect244"
       width="874.80084"
       height="520.58704"
       x="-168.51991"
       y="-2.5979261e-06" /></clipPath><clipPath
     clipPathUnits="userSpaceOnUse"
     id="clipPath246"><rect
       style="fill:#ff579e;fill-opacity:1;stroke-width:1.10571432;stroke-miterlimit:4;stroke-dasharray:none"
       id="rect248"
       width="874.80084"
       height="520.58704"
       x="-168.51991"
       y="-2.5979261e-06" /></clipPath><clipPath
     clipPathUnits="userSpaceOnUse"
     id="clipPath250"><rect
       style="fill:#ff579e;fill-opacity:1;stroke-width:1.10571432;stroke-miterlimit:4;stroke-dasharray:none"
       id="rect252"
       width="874.80084"
       height="520.58704"
       x="-168.51991"
       y="-2.5979261e-06" /></clipPath><clipPath
     clipPathUnits="userSpaceOnUse"
     id="clipPath254"><rect
       style="fill:#ff579e;fill-opacity:1;stroke-width:1.10571432;stroke-miterlimit:4;stroke-dasharray:none"
       id="rect256"
       width="874.80084"
       height="520.58704"
       x="-168.51991"
       y="-2.5979261e-06" /></clipPath><clipPath
     clipPathUnits="userSpaceOnUse"
     id="clipPath258"><rect
       style="fill:#ff579e;fill-opacity:1;stroke-width:1.10571432;stroke-miterlimit:4;stroke-dasharray:none"
       id="rect260"
       width="874.80084"
       height="520.58704"
       x="-168.51991"
       y="-2.5979261e-06" /></clipPath><clipPath
     clipPathUnits="userSpaceOnUse"
     id="clipPath262"><rect
       style="fill:#ff579e;fill-opacity:1;stroke-width:1.10571432;stroke-miterlimit:4;stroke-dasharray:none"
       id="rect264"
       width="874.80084"
       height="520.58704"
       x="-168.51991"
       y="-2.5979261e-06" /></clipPath><clipPath
     clipPathUnits="userSpaceOnUse"
     id="clipPath266"><rect
       style="fill:#ff579e;fill-opacity:1;stroke-width:1.10571432;stroke-miterlimit:4;stroke-dasharray:none"
       id="rect268"
       width="874.80084"
       height="520.58704"
       x="-168.51991"
       y="-2.5979261e-06" /></clipPath><clipPath
     clipPathUnits="userSpaceOnUse"
     id="clipPath270"><rect
       style="fill:#ff579e;fill-opacity:1;stroke-width:1.10571432;stroke-miterlimit:4;stroke-dasharray:none"
       id="rect272"
       width="874.80084"
       height="520.58704"
       x="-168.51991"
       y="-2.5979261e-06" /></clipPath><clipPath
     clipPathUnits="userSpaceOnUse"
     id="clipPath274"><rect
       style="fill:#ff579e;fill-opacity:1;stroke-width:1.10571432;stroke-miterlimit:4;stroke-dasharray:none"
       id="rect276"
       width="874.80084"
       height="520.58704"
       x="-168.51991"
       y="-2.5979261e-06" /></clipPath><clipPath
     clipPathUnits="userSpaceOnUse"
     id="clipPath278"><rect
       style="fill:#ff579e;fill-opacity:1;stroke-width:1.10571432;stroke-miterlimit:4;stroke-dasharray:none"
       id="rect280"
       width="874.80084"
       height="520.58704"
       x="-168.51991"
       y="-2.5979261e-06" /></clipPath><clipPath
     clipPathUnits="userSpaceOnUse"
     id="clipPath282"><rect
       style="fill:#ff579e;fill-opacity:1;stroke-width:1.10571432;stroke-miterlimit:4;stroke-dasharray:none"
       id="rect284"
       width="874.80084"
       height="520.58704"
       x="-168.51991"
       y="-2.5979261e-06" /></clipPath><clipPath
     clipPathUnits="userSpaceOnUse"
     id="clipPath286"><rect
       style="fill:#ff579e;fill-opacity:1;stroke-width:1.10571432;stroke-miterlimit:4;stroke-dasharray:none"
       id="rect288"
       width="874.80084"
       height="520.58704"
       x="-168.51991"
       y="-2.5979261e-06" /></clipPath><clipPath
     clipPathUnits="userSpaceOnUse"
     id="clipPath290"><rect
       style="fill:#ff579e;fill-opacity:1;stroke-width:1.10571432;stroke-miterlimit:4;stroke-dasharray:none"
       id="rect292"
       width="874.80084"
       height="520.58704"
       x="-168.51991"
       y="-2.5979261e-06" /></clipPath><clipPath
     clipPathUnits="userSpaceOnUse"
     id="clipPath294"><rect
       style="fill:#ff579e;fill-opacity:1;stroke-width:1.10571432;stroke-miterlimit:4;stroke-dasharray:none"
       id="rect296"
       width="874.80084"
       height="520.58704"
       x="-168.51991"
       y="-2.5979261e-06" /></clipPath></defs><sodipodi:namedview
   pagecolor="#ffffff"
   bordercolor="#666666"
   borderopacity="1"
   objecttolerance="10"
   gridtolerance="10"
   guidetolerance="10"
   inkscape:pageopacity="0"
   inkscape:pageshadow="2"
   inkscape:window-width="1280"
   inkscape:window-height="663"
   id="namedview192"
   showgrid="false"
   inkscape:zoom="0.93164062"
   inkscape:cx="320.70087"
   inkscape:cy="129.18404"
   inkscape:window-x="0"
   inkscape:window-y="27"
   inkscape:window-maximized="1"
   inkscape:current-layer="Capa_1" />
<path
   style="fill:#ff507e"
   d="M 466,211 H 46 C 21.099,211 0,231.099 0,256 v 211 c 0,24.899 21.099,45 46,45 h 420 c 24.901,0 46,-20.101 46,-45 V 256 c 0,-24.901 -21.099,-45 -46,-45 z"
   id="path123"
   clip-path="url(#clipPath294)"
   inkscape:connector-curvature="0"
   transform="matrix(1.4905661,0,0,1.1854336,-126.65828,-39.12649)" />
<path
   style="fill:#f40f78"
   d="m 512,256 v 211 c 0,24.899 -21.099,45 -46,45 H 256 V 211 h 210 c 24.901,0 46,20.099 46,45 z"
   id="path125"
   clip-path="url(#clipPath290)"
   inkscape:connector-curvature="0"
   transform="matrix(1.4905661,0,0,1.1854336,-126.65828,-39.12649)" />
<path
   style="fill:#e1e4fb"
   d="M 436,271 H 76 c -8.401,0 -15,6.599 -15,15 v 151 c 0,8.399 6.599,15 15,15 h 360 c 8.401,0 15,-6.601 15,-15 V 286 c 0,-8.401 -6.599,-15 -15,-15 z"
   id="path127"
   clip-path="url(#clipPath286)"
   inkscape:connector-curvature="0"
   transform="matrix(1.4905661,0,0,1.1854336,-126.65828,-39.12649)" />
<g
   id="g133"
   clip-path="url(#clipPath282)"
   transform="matrix(1.4905661,0,0,1.1854336,-126.65828,-39.12649)">
	<path
   style="fill:#c5c9f7"
   d="m 451,286 v 151 c 0,8.399 -6.599,15 -15,15 H 256 V 271 h 180 c 8.401,0 15,6.599 15,15 z"
   id="path129"
   inkscape:connector-curvature="0" />
	<path
   style="fill:#c5c9f7"
   d="M 91,301 V 422 H 421 V 301 Z"
   id="path131"
   inkscape:connector-curvature="0" />
</g>
<rect
   x="256"
   y="301"
   style="fill:#a8aff1"
   width="165"
   height="121"
   id="rect135"
   clip-path="url(#clipPath278)"
   transform="matrix(1.4905661,0,0,1.1854336,-126.65828,-39.12649)" />




<path
   style="fill:#FFDA2D;"
   d="M342.1,61.899c-1.8-5.4-6.301-9.3-11.7-10.199l-41.1-6.901L269.801,7.5C267.1,2.401,261.4,0,256,0  c-5.099,0.3-10.201,2.701-12.9,7.5l-19.501,37.299L182.5,51.7c-5.4,0.899-9.901,4.799-11.7,10.199c-1.5,5.4-0.298,11.1,3.602,15  l29.099,30l-6,41.4c-0.599,5.4,1.5,11.1,6,14.401c4.501,2.999,10.499,3.6,15.601,1.199l36.898-18l0.601-0.298l37.5,18.3  c4.799,2.401,10.8,1.8,15.3-1.199c4.499-3.301,6.899-9.001,5.999-14.401l-5.999-41.4l29.099-30  C342.4,72.999,343.9,67.299,342.1,61.899z"
   id="path145"
   clip-path="url(#clipPath274)" />
<path
   style="fill:#FFBC33;"
   d="M338.5,76.899l-29.099,30l5.999,41.4c0.901,5.4-1.5,11.1-5.999,14.401  c-4.501,2.999-10.501,3.6-15.3,1.199l-37.5-18.3l-0.601,0.3V0c5.4,0,11.1,2.401,13.801,7.5L289.3,44.799l41.1,6.901  c5.4,0.899,9.901,4.799,11.7,10.199S342.4,72.999,338.5,76.899z"
   id="path147"
   clip-path="url(#clipPath270)" />
<path
   style="fill:#FFDA2D;"
   d="M508.7,96.7c-1.5-5.101-5.4-8.701-10.501-9.901l-31.899-8.1L449.2,51.7  c-2.701-4.501-8.101-6.601-13.2-6.601c-4.799,0.3-9.6,2.401-12.299,6.601l-17.1,26.999L375.7,86.8  c-4.799,1.199-9,4.799-10.499,9.901c-1.5,4.799-0.601,10.199,2.699,14.099l20.4,24.6l-2.098,31.8  c-0.3,5.099,2.098,10.201,6.299,13.2s9.6,3.6,14.401,1.8l29.099-11.4l0.601-0.3l29.7,11.7c4.799,1.8,11.199,1.199,15.399-1.8  c3.9-2.999,6.301-8.101,6-13.2l-2.1-31.8l20.4-24.6C509.299,106.899,510.5,101.499,508.7,96.7z"
   id="path149"
   clip-path="url(#clipPath266)" />
<path
   style="fill:#FFBC33;"
   d="M506,110.799l-20.4,24.6l2.1,31.8c0.3,5.099-2.1,10.201-6,13.2c-4.2,2.999-10.6,3.6-15.399,1.8  l-29.7-11.7l-0.601,0.3v-125.7c5.099,0,10.499,2.1,13.2,6.601l17.1,26.999l31.899,8.101c5.101,1.199,9.001,4.799,10.501,9.901  C510.5,101.499,509.299,106.899,506,110.799z"
   id="path151"
   clip-path="url(#clipPath262)" />
<path
   style="fill:#FFDA2D;"
   d="M147.7,96.7c-1.5-5.101-5.4-8.701-10.501-9.901l-30.899-8.1L89.2,51.7  c-2.701-4.501-8.101-6.601-13.2-6.601c-4.799,0.3-9.6,2.401-12.299,6.601l-17.1,26.999L14.7,86.8c-4.799,1.199-9,4.799-10.5,9.9  c-1.5,4.799-0.601,10.199,2.699,14.099l21.4,24.6l-2.098,31.8c-0.3,5.099,2.098,10.201,6.299,13.2s9.6,3.6,14.401,1.8L76,170.799  l0.601-0.3l29.7,11.7c4.799,1.8,10.199,1.199,14.399-1.8c3.9-2.999,6.301-8.101,6-13.2l-2.1-31.8l20.4-24.6  C148.299,106.899,149.5,101.499,147.7,96.7z"
   id="path153"
   clip-path="url(#clipPath258)" />
<path
   style="fill:#FFBC33;"
   d="M145,110.799l-20.4,24.6l2.1,31.8c0.3,5.099-2.1,10.201-6,13.2c-4.2,2.999-9.6,3.6-14.399,1.8  l-29.7-11.7l-0.601,0.3v-125.7c5.099,0,10.499,2.1,13.2,6.601l17.1,26.999l30.899,8.101c5.101,1.199,9.001,4.799,10.501,9.901  C149.5,101.499,148.299,106.899,145,110.799z"
   id="path155"
   clip-path="url(#clipPath254)" />


<g
   id="g161"
   clip-path="url(#clipPath250)">
</g>
<g
   id="g163"
   clip-path="url(#clipPath246)">
</g>
<g
   id="g165"
   clip-path="url(#clipPath242)">
</g>
<g
   id="g167"
   clip-path="url(#clipPath238)">
</g>
<g
   id="g169"
   clip-path="url(#clipPath234)">
</g>
<g
   id="g171"
   clip-path="url(#clipPath230)">
</g>
<g
   id="g173"
   clip-path="url(#clipPath226)">
</g>
<g
   id="g175"
   clip-path="url(#clipPath222)">
</g>
<g
   id="g177"
   clip-path="url(#clipPath218)">
</g>
<g
   id="g179"
   clip-path="url(#clipPath214)">
</g>
<g
   id="g181"
   clip-path="url(#clipPath210)">
</g>
<g
   id="g183"
   clip-path="url(#clipPath206)">
</g>
<g
   id="g185"
   clip-path="url(#clipPath202)">
</g>
<g
   id="g187"
   clip-path="url(#clipPath198)">
</g>
<g
   id="g189"
   clip-path="url(#clipPath194)">
</g>
</svg>